<svg width="129" height="72" viewBox="0 0 129 72" fill="none" xmlns="http://www.w3.org/2000/svg">
<g clip-path="url(#clip0_71_21)">
<path d="M114.681 1.20375L8.97261 39.6785C7.82955 40.0946 6.89687 40.9453 6.38189 42.0478L3.58995 47.9941C3.07314 49.1005 3.01513 50.3656 3.43272 51.5129L8.85609 66.4135C9.89639 69.2717 13.0606 70.7446 15.9226 69.7029L119.299 32.077C120.373 31.6861 121.264 30.9091 121.796 29.8982L124.745 24.3018C125.349 23.1572 125.442 21.8108 125 20.5945L118.607 3.03124C118.029 1.44399 116.271 0.625274 114.681 1.20375ZM122.386 19.8198C123.195 22.0425 122.046 24.5025 119.82 25.3126L18.2695 62.2741C16.3605 62.9689 14.2513 61.9847 13.5585 60.0811L8.15501 45.2352C7.63486 43.8061 8.37342 42.2249 9.80441 41.7041L114.811 3.48501C115.605 3.19577 116.484 3.60225 116.773 4.39875L122.386 19.8198Z" fill="black"/>
<path d="M116.773 4.39876L122.386 19.8198C123.195 22.0425 122.046 24.5025 119.82 25.3126L18.2695 62.2741C16.3605 62.9689 14.2513 61.9847 13.5585 60.0811L8.15499 45.2352C7.63484 43.8061 8.37341 42.2249 9.8044 41.7041L114.811 3.48502C115.605 3.19578 116.484 3.60226 116.773 4.39876Z" fill="#B4E664"/>
<path d="M20.2619 52.9847L19.1794 53.3787L18.8457 51.1002L17.2592 51.6776L17.1125 50.6922L18.6874 50.119L18.4317 48.4309L16.9114 48.9842L16.7647 47.9988L18.285 47.4455L17.9398 45.1712L19.0224 44.7771L19.3676 47.0514L21.0865 46.4258L20.7413 44.1515L21.8124 43.7617L22.1576 46.036L23.744 45.4585L23.8907 46.4439L22.3158 47.0172L22.56 48.7095L24.0918 48.152L24.2385 49.1374L22.7183 49.6907L23.0635 51.965L21.9809 52.359L21.6357 50.0847L19.9167 50.7104L20.2619 52.9847ZM19.5132 48.0339L19.769 49.7221L21.4879 49.0965L21.2321 47.4083L19.5132 48.0339Z" fill="black"/>
<path d="M28.0388 50.1541L26.8036 50.6037L24.8863 45.3359L26.1215 44.8863L26.8572 46.9077L29.2412 46.04L28.5055 44.0186L29.7522 43.5648L31.6695 48.8327L30.4228 49.2864L29.6557 47.1787L27.2717 48.0464L28.0388 50.1541Z" fill="black"/>
<path d="M34.1119 47.6506C33.5968 47.5613 33.1396 47.3532 32.7421 47.0225C32.3445 46.6917 32.0562 46.2757 31.873 45.7725C31.6899 45.2693 31.6433 44.7652 31.7353 44.2563C31.8272 43.7474 32.038 43.2962 32.3636 42.9009C32.6893 42.5056 33.0974 42.2203 33.5868 42.0421C34.0763 41.864 34.5692 41.8116 35.0492 41.8941C35.5292 41.9767 35.9532 42.174 36.3251 42.4881C36.697 42.8021 36.9704 43.204 37.1483 43.6929C37.2174 43.8826 37.2671 44.0729 37.2967 44.2706L33.3147 45.7199C33.4858 46.0289 33.7582 46.2488 34.1377 46.3777C34.5144 46.5077 34.9085 46.4977 35.3174 46.3489C35.8558 46.1529 36.2605 45.7777 36.5325 45.2261L37.5566 45.7553C37.4422 46.077 37.2223 46.4045 36.8948 46.7321C36.5674 47.0597 36.1527 47.3181 35.6518 47.5005C35.1508 47.6828 34.6289 47.736 34.1138 47.6467L34.1119 47.6506ZM35.7349 43.7872C35.5353 43.4626 35.2812 43.2392 34.9755 43.116C34.6698 42.9928 34.3384 42.9962 33.9814 43.1262C33.6244 43.2561 33.3385 43.4741 33.1681 43.7674C32.9977 44.0606 32.9303 44.4042 32.9651 44.7954L35.7321 43.7883L35.7349 43.7872Z" fill="black"/>
<path d="M43.8298 46.7935L39.1799 48.486L38.7979 47.4365L43.4478 45.744L43.8298 46.7935Z" fill="black"/>
<path d="M46.1579 43.5593L44.9227 44.0089L43.4313 39.9114L41.6807 40.5485L41.2548 39.3782L46.0026 37.6501L46.4286 38.8205L44.6665 39.4618L46.1579 43.5593Z" fill="black"/>
<path d="M50.1516 36.3192C50.5591 36.3727 50.914 36.5236 51.2113 36.7671C51.5126 37.0124 51.7303 37.3239 51.8684 37.7035L53.0814 41.0361L51.9009 41.4658L51.6341 40.7325L51.6225 40.7367C51.5521 41.0001 51.4016 41.2763 51.1649 41.5578C50.9293 41.8422 50.6267 42.05 50.2524 42.1863C49.9098 42.311 49.5795 42.3531 49.2586 42.3135C48.9377 42.274 48.6595 42.1636 48.4229 41.9795C48.1874 41.7982 48.0204 41.5724 47.922 41.3021C47.7609 40.8593 47.7709 40.4388 47.952 40.0407C48.1332 39.6426 48.4672 39.3061 48.9509 39.0226L50.6021 38.0765L50.5979 38.065C50.4993 37.8208 50.3221 37.6476 50.0635 37.5463C49.806 37.4479 49.5299 37.4507 49.2362 37.5576C48.9655 37.6561 48.7496 37.8064 48.5815 38.0076C48.4163 38.2077 48.2734 38.4421 48.1545 38.7068L47.1375 38.2596C47.2757 37.8869 47.4854 37.5403 47.7673 37.213C48.0493 36.8857 48.4197 36.6402 48.8803 36.4725C49.341 36.3048 49.742 36.2598 50.1495 36.3134L50.1516 36.3192ZM50.9698 40.323C51.1306 39.9584 51.1377 39.5748 50.9891 39.1665L50.9252 38.9911L49.6413 39.7548C49.4152 39.8859 49.2584 40.0374 49.1659 40.2046C49.0735 40.3717 49.0596 40.5396 49.1172 40.6977C49.1863 40.8875 49.3158 41.0195 49.5087 41.0925C49.7016 41.1656 49.9215 41.1605 50.1691 41.0704C50.5405 40.9352 50.808 40.6848 50.9688 40.3202L50.9698 40.323Z" fill="black"/>
<path d="M55.7544 40.0665L54.5192 40.5161L52.6019 35.2482L53.8371 34.7987L54.6722 37.0933L55.9591 34.0263L57.4793 33.473L56.2391 36.3634L59.5377 38.6895L58.1269 39.203L55.7367 37.5004L55.2416 38.6575L55.7544 40.0665Z" fill="black"/>
<path d="M61.464 37.9884L60.3698 38.3866L58.4525 33.1188L59.6791 32.6723L60.8805 35.9734L60.9122 35.9618L62.2704 31.7292L63.376 31.3268L65.2934 36.5946L64.0582 37.0442L62.8567 33.7431L62.825 33.7547L61.4668 37.9873L61.464 37.9884Z" fill="black"/>
<path d="M67.7329 35.4136C67.2178 35.3243 66.7606 35.1162 66.3631 34.7855C65.9655 34.4547 65.6771 34.0387 65.494 33.5355C65.3108 33.0323 65.2643 32.5282 65.3562 32.0193C65.4482 31.5104 65.6589 31.0592 65.9846 30.6639C66.3102 30.2686 66.7183 29.9833 67.2078 29.8051C67.6973 29.627 68.1901 29.5746 68.6701 29.6571C69.1502 29.7397 69.5741 29.937 69.946 30.2511C70.3179 30.5651 70.5914 30.967 70.7693 31.4559C70.8384 31.6456 70.8881 31.8359 70.9176 32.0336L66.9356 33.4829C67.1068 33.7919 67.3792 34.0118 67.7587 34.1407C68.1353 34.2707 68.5295 34.2607 68.9384 34.1119C69.4797 33.9149 69.8815 33.5407 70.1535 32.9891L71.1776 33.5183C71.0632 33.84 70.8433 34.1675 70.5158 34.4951C70.1883 34.8227 69.7737 35.0811 69.2727 35.2635C68.7717 35.4458 68.2498 35.499 67.7347 35.4097L67.7329 35.4136ZM69.3559 31.5502C69.1562 31.2256 68.9021 31.0022 68.5964 30.879C68.2907 30.7558 67.9594 30.7592 67.6024 30.8892C67.2453 31.0191 66.9595 31.2371 66.7891 31.5304C66.6186 31.8236 66.5513 32.1672 66.5861 32.5584L69.353 31.5513L69.3559 31.5502Z" fill="black"/>
<path d="M77.4508 34.5565L72.8008 36.249L72.4188 35.1995L77.0688 33.507L77.4508 34.5565Z" fill="black"/>
<path d="M78.5552 31.7677L77.32 32.2173L75.4026 26.9495L76.6378 26.4999L77.473 28.7945L78.7598 25.7275L80.2801 25.1742L79.0399 28.0646L82.3385 30.3907L80.9277 30.9042L78.5375 29.2016L78.0424 30.3587L78.5552 31.7677Z" fill="black"/>
<path d="M84.4406 23.8389C84.8481 23.8925 85.203 24.0434 85.5003 24.2869C85.8015 24.5322 86.0192 24.8437 86.1574 25.2232L87.3704 28.5559L86.1899 28.9856L85.923 28.2523L85.9115 28.2565C85.841 28.5199 85.6905 28.7961 85.4539 29.0776C85.2183 29.362 84.9157 29.5698 84.5414 29.7061C84.1987 29.8308 83.8684 29.8728 83.5475 29.8333C83.2266 29.7938 82.9484 29.6834 82.7118 29.4992C82.4763 29.3179 82.3093 29.0921 82.211 28.8219C82.0498 28.379 82.0598 27.9586 82.241 27.5605C82.4221 27.1624 82.7562 26.8259 83.2399 26.5424L84.8911 25.5962L84.8869 25.5847C84.7882 25.3406 84.611 25.1674 84.3525 25.0661C84.0949 24.9677 83.8188 24.9705 83.5251 25.0774C83.2545 25.1759 83.0385 25.3262 82.8704 25.5273C82.7053 25.7275 82.5623 25.9619 82.4435 26.2266L81.4264 25.7794C81.5647 25.4067 81.7743 25.0601 82.0563 24.7328C82.3382 24.4055 82.7086 24.16 83.1693 23.9923C83.63 23.8246 84.031 23.7796 84.4385 23.8332L84.4406 23.8389ZM85.2588 27.8428C85.4195 27.4782 85.4266 27.0946 85.278 26.6863L85.2142 26.5109L83.9303 27.2745C83.7041 27.4057 83.5473 27.5572 83.4549 27.7243C83.3625 27.8915 83.3486 28.0594 83.4061 28.2175C83.4752 28.4073 83.6048 28.5392 83.7976 28.6123C83.9905 28.6854 84.2104 28.6803 84.458 28.5901C84.8294 28.455 85.097 28.2045 85.2577 27.8399L85.2588 27.8428Z" fill="black"/>
<path d="M90.0433 27.5863L88.8081 28.0359L86.8908 22.7681L88.126 22.3185L88.9612 24.6131L90.248 21.5461L91.7683 20.9928L90.528 23.8833L93.8267 26.2093L92.4158 26.7228L90.0256 25.0202L89.5305 26.1773L90.0433 27.5863Z" fill="black"/>
<path d="M99.2236 26.6319L94.5737 28.3243L94.1917 27.2748L98.8416 25.5823L99.2236 26.6319Z" fill="black"/>
<path d="M99.0899 24.2936L97.1726 19.0258L99.7121 18.1015C100.078 17.9684 100.419 17.9192 100.736 17.9501C101.054 17.981 101.322 18.082 101.546 18.2481C101.766 18.4153 101.924 18.6249 102.017 18.8808C102.102 19.1137 102.116 19.3496 102.06 19.5815C102.005 19.8135 101.892 20.0141 101.719 20.1748C101.976 20.1561 102.236 20.2244 102.501 20.3787C102.763 20.5341 102.954 20.7737 103.07 21.0929C103.171 21.369 103.187 21.656 103.12 21.9474C103.054 22.2387 102.901 22.5092 102.663 22.752C102.426 22.9948 102.117 23.1854 101.737 23.3237L99.0878 24.2878L99.0899 24.2936ZM100.358 20.2174C100.554 20.1461 100.69 20.0445 100.764 19.9166C100.837 19.7858 100.844 19.6433 100.785 19.4823C100.727 19.3213 100.63 19.2165 100.49 19.1633C100.35 19.11 100.183 19.1185 99.9847 19.1908L98.7927 19.6247L99.1663 20.6512L100.358 20.2174ZM101.259 22.3156C101.486 22.2328 101.638 22.1124 101.721 21.9552C101.804 21.798 101.813 21.6254 101.747 21.4442C101.681 21.2631 101.564 21.1366 101.399 21.0695C101.234 21.0025 101.038 21.0089 100.813 21.0906L99.5002 21.5685L99.946 22.7934L101.259 22.3156Z" fill="black"/>
<path d="M105.863 21.5355C105.348 21.4462 104.89 21.2381 104.493 20.9074C104.095 20.5766 103.807 20.1606 103.624 19.6574C103.441 19.1542 103.394 18.6501 103.486 18.1412C103.578 17.6323 103.792 17.18 104.132 16.7795C104.469 16.38 104.894 16.0884 105.404 15.9029C105.914 15.7174 106.39 15.6645 106.855 15.7329C107.318 15.8053 107.711 15.9426 108.032 16.1447L107.45 17.1968C106.894 16.914 106.357 16.865 105.848 17.0504C105.404 17.2118 105.088 17.4994 104.902 17.9093C104.715 18.3191 104.705 18.7493 104.87 19.2007C105.034 19.6522 105.318 19.9754 105.724 20.1694C106.131 20.3634 106.555 20.3816 107.001 20.2192C107.292 20.1134 107.537 19.9526 107.728 19.7363C107.924 19.5217 108.072 19.2824 108.176 19.0229L109.303 19.4661C109.167 19.8445 108.942 20.2128 108.626 20.5721C108.31 20.9313 107.9 21.2012 107.399 21.3835C106.898 21.5659 106.376 21.619 105.861 21.5297L105.863 21.5355Z" fill="black"/>
<path d="M111.486 19.4887C110.971 19.3994 110.514 19.1913 110.116 18.8606C109.719 18.5299 109.43 18.1138 109.247 17.6106C109.064 17.1074 109.017 16.6033 109.109 16.0944C109.201 15.5855 109.412 15.1343 109.738 14.739C110.063 14.3437 110.471 14.0584 110.961 13.8803C111.45 13.7021 111.943 13.6497 112.423 13.7323C112.903 13.8148 113.327 14.0122 113.699 14.3262C114.071 14.6402 114.344 15.0422 114.522 15.531C114.591 15.7208 114.641 15.9111 114.671 16.1087L110.689 17.5581C110.86 17.867 111.132 18.087 111.512 18.2159C111.888 18.3458 112.283 18.3358 112.691 18.187C113.233 17.99 113.634 17.6158 113.906 17.0642L114.931 17.5935C114.816 17.9151 114.596 18.2427 114.269 18.5703C113.941 18.8979 113.527 19.1562 113.026 19.3386C112.525 19.5209 112.003 19.5741 111.488 19.4848L111.486 19.4887ZM113.109 15.6253C112.909 15.3007 112.655 15.0774 112.349 14.9542C112.044 14.831 111.712 14.8344 111.355 14.9643C110.998 15.0942 110.712 15.3123 110.542 15.6055C110.372 15.8987 110.304 16.2423 110.339 16.6335L113.106 15.6264L113.109 15.6253Z" fill="black"/>
</g>
<defs>
<clipPath id="clip0_71_21">
<rect width="124.81" height="30.5907" fill="white" transform="translate(0.277283 42.8434) rotate(-20)"/>
</clipPath>
</defs>
</svg>
