<svg width="138" height="68" viewBox="0 0 138 68" fill="none" xmlns="http://www.w3.org/2000/svg">
<g clip-path="url(#clip0_29_76)">
<path d="M126.185 0.85792L8.47425 36.8457C7.36025 37.1863 6.42622 37.9549 5.87947 38.9867L2.91679 44.551C2.36809 45.5865 2.25057 46.7978 2.59383 47.9206L7.05196 62.5024C7.9071 65.2995 10.8622 66.8761 13.6514 66.0233L129.089 30.7304C130.136 30.4105 131.026 29.7105 131.585 28.7674L134.68 23.5471C135.314 22.4794 135.47 21.1918 135.106 20.0015L129.851 2.81397C129.376 1.26068 127.734 0.384364 126.185 0.85792ZM132.644 19.1236C133.309 21.2987 132.089 23.601 129.92 24.2641L16.261 59.0131C14.4006 59.5819 12.4309 58.5287 11.8614 56.6658L7.41958 42.1374C6.99201 40.7389 7.77614 39.2592 9.17074 38.8328L126.197 3.05434C126.971 2.81756 127.792 3.2529 128.03 4.03236L132.644 19.1236Z" fill="black"/>
<path d="M128.03 4.03238L132.644 19.1236C133.309 21.2987 132.089 23.601 129.92 24.2641L16.261 59.0131C14.4006 59.5819 12.4309 58.5287 11.8614 56.6658L7.4196 42.1374C6.99203 40.7389 7.77616 39.2592 9.17076 38.8328L126.197 3.05435C126.971 2.81757 127.792 3.25291 128.03 4.03238Z" fill="#F05A23"/>
<path d="M18.6227 50.1986L17.5676 50.5212L17.3601 48.3169L15.814 48.7896L15.7219 47.8362L17.2568 47.3669L17.0949 45.7333L15.6133 46.1863L15.5213 45.2329L17.0029 44.7799L16.7841 42.5791L17.8392 42.2565L18.0579 44.4573L19.7331 43.9452L19.5144 41.7443L20.5582 41.4252L20.777 43.626L22.3231 43.1533L22.4152 44.1068L20.8803 44.576L21.031 46.2131L22.5238 45.7567L22.6158 46.7101L21.1342 47.163L21.353 49.3639L20.2979 49.6864L20.0792 47.4856L18.404 47.9978L18.6227 50.1986ZM18.1491 45.4079L18.311 47.0415L19.9863 46.5294L19.8243 44.8958L18.1491 45.4079Z" fill="black"/>
<path d="M24.1908 42.8593L28.094 41.6659L29.6701 46.8211L28.4663 47.1891L27.2403 43.1793L25.6718 43.6588L25.7818 44.059C26.0519 45.0226 26.1937 45.7977 26.2035 46.3917C26.2133 46.9856 26.1198 47.4327 25.9212 47.7365C25.7217 48.0374 25.4278 48.2504 25.0378 48.3696C24.8526 48.4262 24.6498 48.4452 24.4264 48.4273L24.0866 47.3158C24.2605 47.3026 24.3864 47.2826 24.4649 47.2586C24.6698 47.196 24.8175 47.077 24.9053 46.9024C24.9931 46.7279 25.0121 46.439 24.9661 46.0377C24.9201 45.6363 24.7966 45.0618 24.5917 44.3213L24.1925 42.8649L24.1908 42.8593Z" fill="black"/>
<path d="M32.0592 45.8137C31.5707 45.7015 31.1435 45.4783 30.7794 45.1404C30.4153 44.8025 30.1598 44.3883 30.0092 43.8958C29.8587 43.4034 29.8389 42.9171 29.9518 42.4334C30.0647 41.9496 30.2912 41.5265 30.6362 41.1595C30.9784 40.7933 31.3996 40.5353 31.8963 40.3835C32.393 40.2316 32.8865 40.21 33.3749 40.3222C33.8633 40.4344 34.2906 40.6576 34.6547 40.9955C35.0188 41.3334 35.2743 41.7476 35.4249 42.2401C35.5754 42.7325 35.5952 43.2188 35.4823 43.7025C35.3694 44.1863 35.1428 44.6094 34.7979 44.9764C34.4557 45.3426 34.0344 45.6006 33.5378 45.7525C33.0411 45.9043 32.5476 45.926 32.0592 45.8137ZM33.8868 44.1842C34.0728 43.9796 34.1956 43.739 34.2552 43.4623C34.3148 43.1856 34.2993 42.9042 34.2099 42.6116C34.1204 42.3189 33.975 42.0741 33.7717 41.8809C33.5675 41.6848 33.332 41.5568 33.0626 41.4884C32.794 41.4229 32.5208 41.4325 32.243 41.5175C31.9652 41.6024 31.7333 41.7471 31.5473 41.9517C31.3613 42.1563 31.2385 42.3969 31.1789 42.6736C31.1193 42.9503 31.1348 43.2317 31.2242 43.5244C31.3137 43.817 31.4591 44.0618 31.6624 44.255C31.8665 44.4511 32.1029 44.5819 32.3715 44.6475C32.6401 44.713 32.9133 44.7034 33.1911 44.6184C33.4689 44.5335 33.7008 44.3888 33.8868 44.1842Z" fill="black"/>
<path d="M38.5512 44.1059L37.3474 44.4739L35.7714 39.3187L36.8152 38.9996L39.1898 40.6244L39.2319 40.6116L40.3031 37.9332L41.3161 37.6235L42.8922 42.7787L41.6772 43.1502L40.687 39.9113L40.6561 39.9207L39.7114 42.2804L37.5975 40.8558L37.5638 40.8661L38.554 44.105L38.5512 44.1059Z" fill="black"/>
<path d="M45.9681 36.3705C46.3553 36.4429 46.6875 36.6059 46.96 36.8549C47.2361 37.1059 47.4292 37.4161 47.5427 37.7876L48.5398 41.0489L47.3894 41.4007L47.17 40.6831L47.1588 40.6865C47.0785 40.9357 46.9209 41.1931 46.6807 41.4512C46.4413 41.712 46.1416 41.896 45.7769 42.0075C45.4429 42.1096 45.122 42.1339 44.8198 42.0786C44.5147 42.0241 44.254 41.9039 44.0366 41.7149C43.8202 41.5288 43.6715 41.3035 43.5906 41.039C43.4582 40.6056 43.4883 40.2025 43.6812 39.8297C43.874 39.4569 44.2101 39.1511 44.6868 38.9038L46.3129 38.0805L46.3095 38.0692C46.2271 37.8298 46.0661 37.6544 45.8236 37.5439C45.5821 37.4362 45.3177 37.4247 45.0315 37.5122C44.7677 37.5929 44.5538 37.726 44.3831 37.9105C44.2125 38.095 44.067 38.3117 43.9403 38.5597L42.9892 38.0782C43.1397 37.7275 43.3574 37.4056 43.6431 37.1059C43.9298 36.8091 44.2953 36.5896 44.7443 36.4523C45.1933 36.3151 45.5791 36.2925 45.9664 36.3649L45.9681 36.3705ZM46.5546 40.2559C46.7262 39.9141 46.7519 39.5463 46.6297 39.1467L46.5772 38.9751L45.3114 39.6421C45.0886 39.7564 44.9312 39.8937 44.8345 40.0494C44.7379 40.2051 44.7164 40.3655 44.7637 40.5203C44.8205 40.706 44.938 40.8393 45.1189 40.9194C45.2999 40.9995 45.5105 41.0058 45.7518 40.9321C46.1138 40.8214 46.382 40.5948 46.5537 40.2531L46.5546 40.2559Z" fill="black"/>
<path d="M50.8793 40.0598C50.3909 39.9476 49.9636 39.7244 49.5995 39.3865C49.2354 39.0486 48.9799 38.6344 48.8293 38.1419C48.6788 37.6495 48.659 37.1632 48.7719 36.6795C48.8848 36.1957 49.1086 35.7735 49.4395 35.4107C49.7705 35.048 50.1749 34.7951 50.6519 34.6493C51.1289 34.5034 51.603 34.4785 52.061 34.5816C52.5162 34.6855 52.9122 34.8967 53.2526 35.2173C53.593 35.5378 53.8349 35.9377 53.9812 36.4161C54.038 36.6018 54.0762 36.787 54.0948 36.9783L50.214 38.1648C50.3626 38.4701 50.6125 38.6953 50.9692 38.8385C51.3232 38.9826 51.7008 38.9933 52.0992 38.8715C52.6268 38.7102 53.0324 38.3708 53.3168 37.8561L54.2707 38.4168C54.1454 38.7197 53.919 39.0228 53.5896 39.3204C53.2611 39.6209 52.8509 39.8448 52.3627 39.994C51.8744 40.1433 51.3725 40.1675 50.8841 40.0553L50.8793 40.0598ZM52.6215 36.4348C52.4464 36.113 52.2142 35.8855 51.9278 35.7515C51.6414 35.6176 51.3242 35.6038 50.9762 35.7101C50.6283 35.8165 50.3441 36.0111 50.1667 36.2838C49.9893 36.5565 49.908 36.8829 49.9221 37.2601L52.6187 36.4357L52.6215 36.4348Z" fill="black"/>
<path d="M57.0935 38.4369L55.8897 38.8049L54.3137 33.6498L55.3575 33.3306L57.7321 34.9555L57.7742 34.9426L58.8454 32.2643L59.8584 31.9546L61.4345 37.1097L60.2195 37.4812L59.2293 34.2423L59.1984 34.2518L58.2537 36.6114L56.1398 35.1869L56.1089 35.1963L57.0991 38.4352L57.0935 38.4369Z" fill="black"/>
<path d="M67.2142 37.5981L62.6824 38.9836L62.3684 37.9565L66.9002 36.571L67.2142 37.5981Z" fill="black"/>
<path d="M68.1421 34.7821C67.6536 34.6699 67.2264 34.4466 66.8623 34.1087C66.4982 33.7708 66.2427 33.3566 66.0921 32.8642C65.9415 32.3717 65.9217 31.8855 66.0347 31.4017C66.1476 30.918 66.3741 30.4948 66.7191 30.1278C67.0613 29.7617 67.4825 29.5037 67.9792 29.3518C68.4759 29.2 68.9342 29.1737 69.3758 29.2633C69.8155 29.3565 70.1841 29.5085 70.4817 29.719L69.8731 30.699C69.3548 30.3989 68.8442 30.3243 68.3475 30.4761C67.9154 30.6083 67.599 30.8681 67.4003 31.2519C67.2016 31.6357 67.1712 32.0481 67.3063 32.4899C67.4413 32.9317 67.6971 33.2566 68.0765 33.4637C68.4558 33.6708 68.8606 33.7101 69.2955 33.5771C69.579 33.4905 69.821 33.3488 70.0152 33.1509C70.213 32.9551 70.366 32.7329 70.4787 32.4892L71.5347 32.9725C71.3859 33.3288 71.1529 33.6708 70.833 33.9994C70.5131 34.328 70.1072 34.5659 69.6189 34.7152C69.1307 34.8645 68.6288 34.8887 68.1403 34.7765L68.1421 34.7821Z" fill="black"/>
<path d="M75.0803 32.9378L73.8765 33.3058L72.6505 29.296L70.9444 29.8176L70.5943 28.6723L75.2215 27.2576L75.5716 28.4029L73.8543 28.9279L75.0803 32.9378Z" fill="black"/>
<path d="M78.5721 31.5933C78.0837 31.4811 77.6565 31.2578 77.2923 30.9199C76.9282 30.582 76.6727 30.1678 76.5222 29.6754C76.3716 29.1829 76.3518 28.6967 76.4647 28.2129C76.5776 27.7292 76.7986 27.3078 77.1323 26.9442C77.4633 26.5815 77.8677 26.3286 78.3447 26.1827C78.8217 26.0369 79.2958 26.012 79.7538 26.115C80.209 26.2189 80.605 26.4302 80.9454 26.7507C81.2858 27.0713 81.5277 27.4712 81.674 27.9495C81.7308 28.1353 81.769 28.3205 81.7876 28.5117L77.9068 29.6982C78.0554 30.0036 78.3053 30.2287 78.662 30.3719C79.016 30.516 79.3936 30.5267 79.792 30.4049C80.3196 30.2436 80.7224 29.9051 81.0097 29.3896L81.9635 29.9503C81.8383 30.2532 81.6118 30.5563 81.2824 30.8539C80.9531 31.1515 80.5437 31.3782 80.0555 31.5275C79.5672 31.6768 79.0653 31.701 78.5769 31.5888L78.5721 31.5933ZM80.3143 27.9683C80.1392 27.6464 79.907 27.419 79.6206 27.285C79.3342 27.151 79.017 27.1372 78.669 27.2436C78.3211 27.35 78.0369 27.5445 77.8595 27.8173C77.6821 28.09 77.6008 28.4164 77.6149 28.7936L80.3115 27.9692L80.3143 27.9683Z" fill="black"/>
<path d="M84.2663 32.5848L82.0037 25.1841L83.2075 24.8161L83.4295 25.5421L83.4519 25.5352C83.5156 25.2819 83.6732 25.0245 83.9265 24.7593C84.1799 24.4941 84.5049 24.3025 84.9033 24.1807C85.3298 24.0503 85.7608 24.0447 86.1989 24.163C86.637 24.2814 87.0241 24.5138 87.3669 24.8521C87.7068 25.1913 87.9574 25.6193 88.1139 26.1314C88.2705 26.6436 88.3022 27.1385 88.21 27.6098C88.1178 28.081 87.9241 28.4911 87.627 28.8342C87.3328 29.1765 86.9696 29.4136 86.5431 29.544C86.1446 29.6659 85.7681 29.6887 85.4097 29.6105C85.0514 29.5324 84.7768 29.4071 84.5823 29.2327L84.5599 29.2396L85.4684 32.2111L84.2646 32.5791L84.2663 32.5848ZM86.5851 28.0758C86.7655 27.8729 86.8827 27.634 86.9423 27.3573C87.0019 27.0806 86.9865 26.7992 86.897 26.5066C86.8075 26.2139 86.6621 25.9691 86.4588 25.7759C86.2547 25.5799 86.022 25.451 85.7609 25.38C85.498 25.3127 85.236 25.319 84.975 25.3988C84.7141 25.4785 84.4906 25.6207 84.313 25.8227C84.1326 26.0255 84.0154 26.2645 83.9558 26.5411C83.8962 26.8178 83.9117 27.0993 84.0011 27.3919C84.0906 27.6846 84.236 27.9293 84.4393 28.1226C84.6435 28.3186 84.8742 28.4512 85.1372 28.5185C85.4002 28.5858 85.6621 28.5795 85.9231 28.4997C86.1841 28.4199 86.4075 28.2778 86.5851 28.0758Z" fill="black"/>
<path d="M90.972 27.8023C90.4836 27.69 90.0563 27.4668 89.6922 27.1289C89.3281 26.791 89.0726 26.3768 88.9221 25.8843C88.7715 25.3919 88.7517 24.9056 88.8646 24.4219C88.9775 23.9381 89.2013 23.5159 89.5322 23.1531C89.8632 22.7904 90.2676 22.5375 90.7446 22.3917C91.2216 22.2459 91.6957 22.2209 92.1537 22.324C92.6089 22.4279 93.0049 22.6391 93.3453 22.9597C93.6857 23.2802 93.9276 23.6801 94.0739 24.1585C94.1307 24.3442 94.1689 24.5295 94.1875 24.7207L90.3067 25.9072C90.4553 26.2125 90.7052 26.4377 91.0619 26.5809C91.4159 26.725 91.7935 26.7357 92.1919 26.6139C92.7195 26.4526 93.1251 26.1132 93.4096 25.5986L94.3634 26.1593C94.2382 26.4622 94.0117 26.7652 93.6823 27.0629C93.3538 27.3633 92.9436 27.5872 92.4554 27.7365C91.9671 27.8857 91.4652 27.91 90.9768 27.7977L90.972 27.8023ZM92.7142 24.1773C92.5391 23.8554 92.3069 23.6279 92.0205 23.494C91.7341 23.36 91.4169 23.3462 91.069 23.4526C90.721 23.5589 90.4368 23.7535 90.2594 24.0262C90.082 24.2989 90.0007 24.6253 90.0148 25.0026L92.7114 24.1781L92.7142 24.1773Z" fill="black"/>
<path d="M96.9209 25.9835C96.4324 25.8713 96.0052 25.6481 95.6411 25.3102C95.277 24.9723 95.0215 24.5581 94.8709 24.0656C94.7204 23.5732 94.7006 23.0869 94.8135 22.6032C94.9264 22.1194 95.1529 21.6963 95.4979 21.3293C95.8401 20.9631 96.2613 20.7051 96.758 20.5533C97.2547 20.4014 97.7482 20.3798 98.2366 20.492C98.725 20.6042 99.1523 20.8274 99.5164 21.1653C99.8805 21.5032 100.136 21.9174 100.287 22.4099C100.437 22.9023 100.457 23.3886 100.344 23.8723C100.231 24.3561 100.005 24.7792 99.6596 25.1462C99.3174 25.5124 98.8961 25.7704 98.3995 25.9223C97.9028 26.0741 97.4093 26.0958 96.9209 25.9835ZM98.7484 24.354C98.9344 24.1494 99.0573 23.9088 99.1169 23.6321C99.1765 23.3554 99.161 23.074 99.0716 22.7814C98.9821 22.4887 98.8367 22.2439 98.6334 22.0507C98.4292 21.8546 98.1937 21.7266 97.9243 21.6582C97.6557 21.5927 97.3825 21.6023 97.1047 21.6873C96.8269 21.7722 96.595 21.9169 96.409 22.1215C96.223 22.3261 96.1002 22.5667 96.0406 22.8434C95.981 23.1201 95.9964 23.4015 96.0859 23.6942C96.1754 23.9868 96.3208 24.2316 96.5241 24.4248C96.7282 24.6209 96.9646 24.7517 97.2332 24.8173C97.5018 24.8828 97.775 24.8732 98.0528 24.7882C98.3306 24.7033 98.5625 24.5586 98.7484 24.354Z" fill="black"/>
<path d="M104.502 23.9428L103.298 24.3108L102.072 20.301L100.366 20.8226L100.016 19.6773L104.643 18.2626L104.993 19.4079L103.276 19.9329L104.502 23.9428Z" fill="black"/>
<path d="M108.222 22.8052L107.156 23.1312L105.58 17.9761L106.775 17.6106L107.763 20.841L107.794 20.8316L109.301 16.8385L110.378 16.5091L111.954 21.6642L110.751 22.0323L109.763 18.8019L109.732 18.8113L108.225 22.8044L108.222 22.8052Z" fill="black"/>
<path d="M114.609 20.8526L113.405 21.2207L111.829 16.0655L116.574 14.6148L118.15 19.77L116.935 20.1415L115.709 16.1316L113.383 16.8428L114.609 20.8526Z" fill="black"/>
<path d="M119.598 19.3273L118.022 14.1722L119.226 13.8041L119.709 15.3856L120.711 15.0793C121.115 14.9558 121.492 14.9237 121.842 14.9858C122.192 15.0451 122.49 15.1877 122.735 15.4081C122.981 15.6285 123.159 15.9095 123.264 16.2528C123.369 16.5961 123.381 16.9277 123.298 17.2484C123.218 17.5683 123.05 17.8534 122.794 18.098C122.537 18.3426 122.208 18.5295 121.804 18.653L119.595 19.3282L119.598 19.3273ZM121.442 17.6191C121.705 17.5385 121.89 17.4083 121.994 17.2286C122.099 17.0489 122.118 16.8494 122.05 16.6271C121.982 16.4048 121.854 16.2498 121.667 16.1593C121.48 16.0689 121.255 16.064 120.991 16.1446L120.031 16.438L120.482 17.9125L121.442 17.6191ZM125.729 17.4528L124.526 17.8209L122.949 12.6657L124.153 12.2977L125.729 17.4528Z" fill="black"/>
</g>
<defs>
<clipPath id="clip0_29_76">
<rect width="134.885" height="29.4164" fill="white" transform="translate(0 39.4365) rotate(-17)"/>
</clipPath>
</defs>
</svg>
